<svg xmlns="http://www.w3.org/2000/svg" width="1920" height="200"><path d="M646,654L279,753L1129,638Z" fill="#5a9f5e" stroke="#5a9f5e" stroke-width="1.51"/><path d="M1129,638L279,753L1817,640Z" fill="#3e9454" stroke="#3e9454" stroke-width="1.51"/><path d="M1612,-509L1794,-465L2247,-360Z" fill="#8bb977" stroke="#8bb977" stroke-width="1.51"/><path d="M2311,-163L1927,22L2369,328Z" fill="#499658" stroke="#499658" stroke-width="1.51"/><path d="M1927,22L2055,391L2369,328Z" fill="#308e4d" stroke="#308e4d" stroke-width="1.51"/><path d="M2369,328L2055,391L2381,541Z" fill="#1a7840" stroke="#1a7840" stroke-width="1.51"/><path d="M2055,391L1817,640L2381,541Z" fill="#16773d" stroke="#16773d" stroke-width="1.51"/><path d="M2247,-360L1927,22L2311,-163Z" fill="#69a464" stroke="#69a464" stroke-width="1.51"/><path d="M1794,-465L1927,22L2247,-360Z" fill="#79af6c" stroke="#79af6c" stroke-width="1.51"/><path d="M1927,22L1679,504L2055,391Z" fill="#2e924d" stroke="#2e924d" stroke-width="1.51"/><path d="M1679,504L1817,640L2055,391Z" fill="#1f8041" stroke="#1f8041" stroke-width="1.51"/><path d="M1542,408L1679,504L1927,22Z" fill="#339850" stroke="#339850" stroke-width="1.51"/><path d="M1464,-17L1542,408L1927,22Z" fill="#4fa85f" stroke="#4fa85f" stroke-width="1.51"/><path d="M1794,-465L1464,-17L1927,22Z" fill="#74b46b" stroke="#74b46b" stroke-width="1.51"/><path d="M1612,-509L1464,-17L1794,-465Z" fill="#8bc178" stroke="#8bc178" stroke-width="1.51"/><path d="M1679,504L1129,638L1817,640Z" fill="#258847" stroke="#258847" stroke-width="1.51"/><path d="M1542,408L1129,638L1679,504Z" fill="#2e924c" stroke="#2e924c" stroke-width="1.51"/><path d="M977,-197L1464,-17L1612,-509Z" fill="#8ccb7d" stroke="#8ccb7d" stroke-width="1.51"/><path d="M1095,-623L977,-197L1612,-509Z" fill="#a5d78c" stroke="#a5d78c" stroke-width="1.51"/><path d="M873,233L1054,498L1464,-17Z" fill="#5bb669" stroke="#5bb669" stroke-width="1.51"/><path d="M1464,-17L1054,498L1542,408Z" fill="#42ab5e" stroke="#42ab5e" stroke-width="1.51"/><path d="M1054,498L1129,638L1542,408Z" fill="#3b9a53" stroke="#3b9a53" stroke-width="1.51"/><path d="M977,-197L873,233L1464,-17Z" fill="#7cc779" stroke="#7cc779" stroke-width="1.51"/><path d="M640,-594L977,-197L1095,-623Z" fill="#bbe299" stroke="#bbe299" stroke-width="1.51"/><path d="M1054,498L646,654L1129,638Z" fill="#4c9e5b" stroke="#4c9e5b" stroke-width="1.51"/><path d="M640,-594L662,-236L977,-197Z" fill="#b9e395" stroke="#b9e395" stroke-width="1.51"/><path d="M873,233L646,654L1054,498Z" fill="#5aab62" stroke="#5aab62" stroke-width="1.51"/><path d="M512,364L646,654L873,233Z" fill="#6ab56a" stroke="#6ab56a" stroke-width="1.51"/><path d="M662,-236L873,233L977,-197Z" fill="#97d384" stroke="#97d384" stroke-width="1.51"/><path d="M388,-153L512,364L662,-236Z" fill="#a3d98a" stroke="#a3d98a" stroke-width="1.51"/><path d="M662,-236L512,364L873,233Z" fill="#88cd7f" stroke="#88cd7f" stroke-width="1.51"/><path d="M640,-594L436,-573L662,-236Z" fill="#cfeba1" stroke="#cfeba1" stroke-width="1.51"/><path d="M436,-573L388,-153L662,-236Z" fill="#c8e99b" stroke="#c8e99b" stroke-width="1.51"/><path d="M512,364L279,753L646,654Z" fill="#6cab67" stroke="#6cab67" stroke-width="1.51"/><path d="M141,-313L388,-153L436,-573Z" fill="#d4eea1" stroke="#d4eea1" stroke-width="1.51"/><path d="M388,-153L-84,71L512,364Z" fill="#a4d98b" stroke="#a4d98b" stroke-width="1.51"/><path d="M-84,71L90,469L512,364Z" fill="#91cd7f" stroke="#91cd7f" stroke-width="1.51"/><path d="M90,469L279,753L512,364Z" fill="#7ab46d" stroke="#7ab46d" stroke-width="1.51"/><path d="M-243,-334L141,-313L436,-573Z" fill="#e3f4aa" stroke="#e3f4aa" stroke-width="1.51"/><path d="M141,-313L-84,71L388,-153Z" fill="#c7e89a" stroke="#c7e89a" stroke-width="1.51"/><path d="M90,469L21,726L279,753Z" fill="#7caf6d" stroke="#7caf6d" stroke-width="1.51"/><path d="M-243,-334L-84,71L141,-313Z" fill="#d6efa3" stroke="#d6efa3" stroke-width="1.51"/><path d="M-84,71L-397,458L90,469Z" fill="#9bcf85" stroke="#9bcf85" stroke-width="1.51"/><path d="M-397,458L-363,526L90,469Z" fill="#93c17c" stroke="#93c17c" stroke-width="1.51"/><path d="M-363,526L21,726L90,469Z" fill="#88b775" stroke="#88b775" stroke-width="1.51"/><path d="M-243,-334L-441,-161L-84,71Z" fill="#d7efa6" stroke="#d7efa6" stroke-width="1.51"/><path d="M-441,-161L-397,458L-84,71Z" fill="#b7e09a" stroke="#b7e09a" stroke-width="1.51"/></svg>