
<svg version="1.1" id="layer1" xmlns="http://www.w3.org/2000/svg" xmlns:xlink="http://www.w3.org/1999/xlink" x="0px" y="0px"
	 width="100px" height="100px" viewBox="0 0 100 100" enable-background="new 0 0 100 100" xml:space="preserve"
style="overflow: hidden; fill: red; width: 26px; height: 26px; position: absolute;top: -40px; right: -16px;">
<circle fill="#FFFFFF" cx="51" cy="46.788" r="38.5"/>
<path fill="#FF0000" d="M49.974,4.982c-24.003,0-41.85,19.653-41.85,42.624c0,2.027,0.446,8.044,1.159,9.74l0.556,2.125
	c0.172,1.074,1.071,1.913,2.204,1.913c0.998,0,2.008-0.805,2.145-1.713l0.055-0.497l-0.27-1.553
	c-0.376-1.653-1.194-7.886-1.194-10.016c0-20.417,15.892-38.328,37.194-38.003c20.568,0.312,37.247,16.555,37.247,36.972
	c0,20.416-16.679,36.97-37.247,36.97c-7.33,0-14.148-2.132-19.912-5.762c-0.01,0.007-0.024,0.016-0.034,0.024
	c-0.995-0.495-2.297-0.351-3.247,0.453c-2.472,2.298-4.921,3.698-6.945,4.553c0.561-3.867,0.686-8.698,0.497-10.689
	c0-0.366-0.07-0.742-0.241-1.106c-0.56-1.204-1.881-1.78-2.948-1.29c-0.515,0.235-0.871,0.676-1.047,1.2l-0.119,0.747
	c0,0.185,0.016,0.37,0.059,0.557c0.174,2.054,0.66,7.538-1.679,12.369c-0.166,0.389-0.241,0.801-0.237,1.208
	c-0.002,0.013-0.006,0.025-0.008,0.038c-0.217,1.272,0.695,2.485,2.038,2.71c0.093,0.015,0.185,0.024,0.276,0.028
	c0.33,0.03,0.658-0.015,0.966-0.128c2.722-0.568,8.894-3.279,12.134-5.603c6.048,3.373,13.015,5.311,20.447,5.311
	c23.144,0,41.903-18.622,41.903-41.592C91.876,23.603,73.118,4.982,49.974,4.982z M22.094,38.644v16.489h3.586v-9.73
	c0-0.594,0.091-1.156,0.283-1.691c0.187-0.529,0.451-0.993,0.785-1.385c0.335-0.392,0.747-0.706,1.23-0.927
	c0.483-0.222,1.03-0.333,1.635-0.333c1.069,0,1.854,0.294,2.356,0.876c0.502,0.587,0.773,1.528,0.818,2.821v10.37h3.586V43.81
	c0-1.874-0.508-3.278-1.539-4.212c-1.03-0.934-2.434-1.404-4.217-1.404c-1.069,0-2.041,0.261-2.923,0.784
	c-0.882,0.523-1.591,1.241-2.138,2.155l-0.064-0.065v-2.422L22.094,38.644L22.094,38.644z M54.66,44.254
	c-0.302-1.163-0.792-2.188-1.462-3.083c-0.67-0.895-1.513-1.613-2.53-2.155c-1.017-0.549-2.163-0.817-3.444-0.817
	c-1.217,0-2.305,0.229-3.271,0.699c-0.966,0.463-1.79,1.097-2.466,1.894c-0.683,0.797-1.204,1.724-1.571,2.775
	c-0.367,1.058-0.547,2.168-0.547,3.337c0,1.273,0.167,2.442,0.515,3.507c0.341,1.064,0.856,1.972,1.538,2.743
	c0.683,0.77,1.514,1.364,2.499,1.789c0.985,0.425,2.118,0.64,3.399,0.64c0.876,0,1.725-0.124,2.53-0.366
	c0.805-0.248,1.539-0.607,2.189-1.091c0.644-0.477,1.204-1.065,1.661-1.77c0.464-0.699,0.792-1.496,0.979-2.391H51.28
	c-0.316,0.914-0.792,1.6-1.43,2.057c-0.638,0.457-1.481,0.686-2.53,0.686c-0.753,0-1.404-0.131-1.951-0.398
	c-0.547-0.268-0.991-0.627-1.352-1.071c-0.361-0.444-0.625-0.967-0.805-1.561c-0.173-0.59-0.26-1.2-0.262-1.835h11.948
	C55.04,46.611,54.963,45.41,54.66,44.254z M42.949,45.436c0.019-0.614,0.142-1.188,0.36-1.724c0.219-0.529,0.515-0.993,0.882-1.385
	c0.367-0.392,0.811-0.706,1.319-0.927c0.509-0.222,1.082-0.333,1.713-0.333c0.605,0,1.159,0.124,1.655,0.366
	c0.489,0.248,0.908,0.569,1.255,0.96c0.348,0.392,0.618,0.856,0.818,1.385c0.199,0.536,0.322,1.084,0.361,1.659L42.949,45.436
	L42.949,45.436z M67.95,42.889h0.064l3.02,12.251h3.683l5.093-16.496h-3.651l-3.303,12.317h-0.064l-2.923-12.317H66.25
	l-3.052,12.317h-0.064l-3.174-12.317h-3.805l5.035,16.496h3.773L67.95,42.889z"/>
</svg>
