<svg width="1800" height="588" viewBox="0 0 1800 588" xmlns="http://www.w3.org/2000/svg"><g transform="translate(-108)" fill="none" fill-rule="evenodd"><path d="M129.974198 431c-173.2989305 35.701661-173.2989305 65.368328 0 89 173.29893 23.631672 481.29893 35.965006 924.000002 37-269.233458-10.501532-472.900125-25.168199-611.000002-44-138.099878-18.831801-242.433211-46.165135-313-82z" fill="#dcedc8" opacity=".59867527" style="mix-blend-mode:darken"/><path d="M540.974198 477C327.692469 508.034994 307.70107 535.368328 481 559c173.29893 23.631672 514.29893 19.965006 1023-11-295.25066 26.165135-511.925925 29.831801-650.025802 11-138.099878-18.831801-242.433211-46.165135-313-82z" fill="#dcedc8" opacity=".28691123" style="mix-blend-mode:darken"/><path d="M2097 420l1 126h-925c269.23346-10.501532 472.90012-25.168199 611-44 138.09988-18.831801 242.43321-46.165135 313-82z" fill="#dcedc8" opacity=".29772418" style="mix-blend-mode:darken"/><path d="M133 28h1800l-65 305c-213.47917 170-491.3125 255-833.5 255S454.145833 524 320 396L133 28z" fill="#dcedc8"/><path d="M95 0h1840l3 474c-286.47917 64.666667-600.8125 97-943 97s-642.1875-32.333333-900-97V0z" fill="#8BC34A"/><circle fill="#FFF" opacity=".15000001" cx="443" cy="200" r="7"/><circle fill="#FFF" opacity=".12279212" cx="1061" cy="465" r="7"/><circle fill="#FFF" opacity=".12279212" cx="1241.5" cy="502.5" r="2.5"/><circle fill="#FFF" opacity=".15000001" cx="505.5" cy="356.5" r="2.5"/><circle fill="#FFF" opacity=".12279212" cx="925.5" cy="516.5" r="2.5"/><circle fill="#D4FFEA" opacity=".24756567" cx="1805.5" cy="289.5" r="2.5"/><circle fill="#FFF" opacity=".15000001" cx="178" cy="495" r="7"/><circle fill="#FFF" opacity=".12279212" cx="1492" cy="345" r="4"/></g></svg>