<svg xmlns="http://www.w3.org/2000/svg" width="1920" height="100"><path d="M1960,250L2360,250L2360,-150Z" fill="#3a8e52" stroke="#3a8e52" stroke-width="1.51"/><path d="M1960,-150L1960,250L2360,-150Z" fill="#509c5b" stroke="#509c5b" stroke-width="1.51"/><path d="M2360,-550L1960,-550L2360,-150Z" fill="#7ba96d" stroke="#7ba96d" stroke-width="1.51"/><path d="M1960,-550L1960,-150L2360,-150Z" fill="#72aa68" stroke="#72aa68" stroke-width="1.51"/><path d="M2360,250L1960,250L2360,650Z" fill="#197940" stroke="#197940" stroke-width="1.51"/><path d="M1960,250L1960,650L2360,650Z" fill="#12743c" stroke="#12743c" stroke-width="1.51"/><path d="M1960,-550L1560,-550L1960,-150Z" fill="#86b973" stroke="#86b973" stroke-width="1.51"/><path d="M1560,-550L1560,-150L1960,-150Z" fill="#7eb970" stroke="#7eb970" stroke-width="1.51"/><path d="M1960,-150L1560,-150L1960,250Z" fill="#58a660" stroke="#58a660" stroke-width="1.51"/><path d="M1560,-150L1560,250L1960,250Z" fill="#49a35b" stroke="#49a35b" stroke-width="1.51"/><path d="M1960,250L1560,250L1960,650Z" fill="#268846" stroke="#268846" stroke-width="1.51"/><path d="M1560,250L1560,650L1960,650Z" fill="#218243" stroke="#218243" stroke-width="1.51"/><path d="M1560,-550L1160,-550L1560,-150Z" fill="#95cc80" stroke="#95cc80" stroke-width="1.51"/><path d="M1160,-550L1160,-150L1560,-150Z" fill="#8ecd7e" stroke="#8ecd7e" stroke-width="1.51"/><path d="M1560,-150L1160,-150L1560,250Z" fill="#65b96c" stroke="#65b96c" stroke-width="1.51"/><path d="M1160,-150L1160,250L1560,250Z" fill="#59b669" stroke="#59b669" stroke-width="1.51"/><path d="M1560,250L1160,250L1560,650Z" fill="#359a52" stroke="#359a52" stroke-width="1.51"/><path d="M1160,250L1160,650L1560,650Z" fill="#349550" stroke="#349550" stroke-width="1.51"/><path d="M1160,-150L760,-150L1160,250Z" fill="#7dc77a" stroke="#7dc77a" stroke-width="1.51"/><path d="M760,-150L760,250L1160,250Z" fill="#74c376" stroke="#74c376" stroke-width="1.51"/><path d="M1160,250L760,250L1160,650Z" fill="#50a960" stroke="#50a960" stroke-width="1.51"/><path d="M760,250L760,650L1160,650Z" fill="#51a25d" stroke="#51a25d" stroke-width="1.51"/><path d="M760,-150L1160,-150L1160,-550Z" fill="#9ed688" stroke="#9ed688" stroke-width="1.51"/><path d="M760,-550L760,-150L1160,-550Z" fill="#b3df93" stroke="#b3df93" stroke-width="1.51"/><path d="M360,650L760,650L760,250Z" fill="#64a963" stroke="#64a963" stroke-width="1.51"/><path d="M360,250L360,650L760,250Z" fill="#75b86e" stroke="#75b86e" stroke-width="1.51"/><path d="M360,250L760,250L760,-150Z" fill="#86cb7d" stroke="#86cb7d" stroke-width="1.51"/><path d="M360,-150L360,250L760,-150Z" fill="#9fd788" stroke="#9fd788" stroke-width="1.51"/><path d="M760,-550L360,-550L760,-150Z" fill="#c4e79a" stroke="#c4e79a" stroke-width="1.51"/><path d="M360,-550L360,-150L760,-150Z" fill="#bfe596" stroke="#bfe596" stroke-width="1.51"/><path d="M-40,650L360,650L360,250Z" fill="#7cb36d" stroke="#7cb36d" stroke-width="1.51"/><path d="M-40,250L-40,650L360,250Z" fill="#8bc178" stroke="#8bc178" stroke-width="1.51"/><path d="M360,-550L-40,-550L360,-150Z" fill="#dbf1a4" stroke="#dbf1a4" stroke-width="1.51"/><path d="M-40,-550L-40,-150L360,-150Z" fill="#d4eea1" stroke="#d4eea1" stroke-width="1.51"/><path d="M-40,250L360,250L360,-150Z" fill="#9ed587" stroke="#9ed587" stroke-width="1.51"/><path d="M-40,-150L-40,250L360,-150Z" fill="#b5e093" stroke="#b5e093" stroke-width="1.51"/><path d="M-40,-550L-440,-550L-40,-150Z" fill="#ebf7af" stroke="#ebf7af" stroke-width="1.51"/><path d="M-440,-550L-440,-150L-40,-150Z" fill="#e2f3ae" stroke="#e2f3ae" stroke-width="1.51"/><path d="M-40,-150L-440,-150L-40,250Z" fill="#bfe49a" stroke="#bfe49a" stroke-width="1.51"/><path d="M-440,-150L-440,250L-40,250Z" fill="#b2dd97" stroke="#b2dd97" stroke-width="1.51"/><path d="M-40,250L-440,250L-40,650Z" fill="#95c57f" stroke="#95c57f" stroke-width="1.51"/><path d="M-440,250L-440,650L-40,650Z" fill="#90bb7d" stroke="#90bb7d" stroke-width="1.51"/></svg>